#define test_width 4
#define test_height 4
static char test_bits[] = {
0x0,0x6,0xA,0x4};

/* 0000
 * 0110
 * 1010
 * 0100
 */
