#define test_width 4
#define test_height 4
static char test_bits[] = {
0x6,0x0,0x9,0x0};

/* 0110
 * 0000
 * 1001
 * 0000
 */
