#define test_width 4
#define test_height 4
static char test_bits[] = {
0xF,0xE,0xD,0xC};
//0x0,0x4,0xA,0x4};

/* 0000
 * 0100
 * 1010
 * 0100
 */
